<?xml version="1.0" encoding="UTF-8" standalone="no"?>
<!-- Generator: Adobe Illustrator 27.5.0, SVG Export Plug-In . SVG Version: 6.00 Build 0)  -->

<svg
   version="1.1"
   x="0px"
   y="0px"
   viewBox="0 0 973.72583 973.72583"
   xml:space="preserve"
   id="svg156"
   sodipodi:docname="brain3.svg"
   width="973.72583"
   height="973.72583"
   inkscape:version="1.4.2 (f4327f4, 2025-05-13)"
   xmlns:inkscape="http://www.inkscape.org/namespaces/inkscape"
   xmlns:sodipodi="http://sodipodi.sourceforge.net/DTD/sodipodi-0.dtd"
   xmlns="http://www.w3.org/2000/svg"
   xmlns:svg="http://www.w3.org/2000/svg"><defs
   id="defs156" /><sodipodi:namedview
   id="namedview156"
   pagecolor="#ffffff"
   bordercolor="#000000"
   borderopacity="0.25"
   inkscape:showpageshadow="2"
   inkscape:pageopacity="0.0"
   inkscape:pagecheckerboard="0"
   inkscape:deskcolor="#d1d1d1"
   inkscape:zoom="0.52149125"
   inkscape:cx="388.30949"
   inkscape:cy="295.30697"
   inkscape:window-width="1920"
   inkscape:window-height="1152"
   inkscape:window-x="0"
   inkscape:window-y="0"
   inkscape:window-maximized="1"
   inkscape:current-layer="svg156" />
<g
   id="Background"
   transform="scale(0.81143819)">
	<radialGradient
   id="SVGID_1_"
   cx="600"
   cy="600"
   r="600"
   gradientUnits="userSpaceOnUse">
		<stop
   offset="0"
   style="stop-color:#1F7BC0"
   id="stop1" />
		<stop
   offset="1"
   style="stop-color:#0C1D40"
   id="stop2" />
	</radialGradient>
	<rect
   x="0"
   y="0"
   style="fill:url(#SVGID_1_)"
   width="1200"
   height="1200"
   id="rect2" />
</g>
<g
   id="Elements"
   transform="translate(-107.38435,-107.38435)">
	<circle
   style="fill:#449ad5"
   cx="602.745"
   cy="747.94702"
   r="9.6260004"
   id="circle2" />
	
		<circle
   transform="matrix(0.2298,-0.9732,0.9732,0.2298,35.8831,1459.4771)"
   style="fill:#449ad5"
   cx="940.00702"
   cy="707.06799"
   id="ellipse2"
   r="9.6260004" />
	<path
   style="fill:#449ad5"
   d="m 922.927,747.511 c -5.317,0 -9.626,-4.31 -9.626,-9.626 0,-5.318 4.309,-9.627 9.626,-9.627 5.315,0 9.626,4.309 9.626,9.627 0,5.315 -4.311,9.626 -9.626,9.626 z"
   id="path2" />
	<path
   style="fill:#449ad5"
   d="m 1054.743,520.292 c -5.316,0 -9.626,-4.311 -9.626,-9.625 0,-5.316 4.31,-9.628 9.626,-9.628 5.315,0 9.626,4.312 9.626,9.628 0,5.314 -4.31,9.625 -9.626,9.625 z"
   id="path3" />
	<path
   style="fill:#449ad5"
   d="m 1017.684,456.76 c -9.837,0 -17.809,-7.972 -17.809,-17.807 0,-9.837 7.972,-17.809 17.809,-17.809 9.834,0 17.808,7.972 17.808,17.809 -10e-4,9.835 -7.974,17.807 -17.808,17.807 z"
   id="path4" />
	<path
   style="fill:#449ad5"
   d="m 869.442,412.482 c -9.835,0 -17.809,-7.974 -17.809,-17.809 0,-9.835 7.974,-17.808 17.809,-17.808 9.835,0 17.808,7.972 17.808,17.808 0,9.835 -7.973,17.809 -17.808,17.809 z"
   id="path5" />
	<path
   style="fill:#449ad5"
   d="m 872.813,556.87 c -9.57,0 -17.328,-7.758 -17.328,-17.326 0,-9.568 7.758,-17.328 17.328,-17.328 9.568,0 17.326,7.76 17.326,17.328 0,9.568 -7.758,17.326 -17.326,17.326 z"
   id="path6" />
	<path
   style="fill:#449ad5"
   d="m 862.544,457.722 c -9.569,0 -17.325,-7.758 -17.325,-17.326 0,-9.569 7.756,-17.327 17.325,-17.327 9.57,0 17.327,7.758 17.327,17.327 0,9.568 -7.757,17.326 -17.327,17.326 z"
   id="path7" />
	
		<circle
   transform="matrix(0.9239,-0.3827,0.3827,0.9239,-77.823,402.915)"
   style="fill:#449ad5"
   cx="973.88501"
   cy="397.07901"
   id="ellipse7"
   r="17.326" />
	<path
   style="fill:#449ad5"
   d="m 759.866,546.603 c -8.328,0 -15.08,-6.752 -15.08,-15.08 0,-8.33 6.752,-15.082 15.08,-15.082 8.33,0 15.082,6.752 15.082,15.082 0,8.328 -6.752,15.08 -15.082,15.08 z"
   id="path8" />
	<path
   style="fill:#449ad5"
   d="m 761.07,453.712 c -7.043,0 -12.753,-5.71 -12.753,-12.754 0,-7.044 5.71,-12.755 12.753,-12.755 7.044,0 12.754,5.711 12.754,12.755 0,7.044 -5.71,12.754 -12.754,12.754 z"
   id="path9" />
	<path
   style="fill:#449ad5"
   d="m 757.941,362.054 c -9.57,0 -17.326,-7.758 -17.326,-17.326 0,-9.569 7.756,-17.327 17.326,-17.327 9.568,0 17.326,7.758 17.326,17.327 10e-4,9.568 -7.757,17.326 -17.326,17.326 z"
   id="path10" />
	<path
   style="fill:#449ad5"
   d="m 718.796,333.769 c -6.379,0 -11.551,-5.173 -11.551,-11.552 0,-6.381 5.172,-11.551 11.551,-11.551 6.379,0 11.552,5.17 11.552,11.551 0,6.379 -5.173,11.552 -11.552,11.552 z"
   id="path11" />
	<path
   style="fill:#449ad5"
   d="m 763.577,318.84 c -6.379,0 -11.551,-5.172 -11.551,-11.551 0,-6.381 5.172,-11.551 11.551,-11.551 6.38,0 11.552,5.17 11.552,11.551 0,6.379 -5.172,11.551 -11.552,11.551 z"
   id="path12" />
	<path
   style="fill:#449ad5"
   d="m 700.506,291.982 c -6.379,0 -11.549,-5.171 -11.549,-11.552 0,-6.38 5.17,-11.551 11.549,-11.551 6.38,0 11.552,5.171 11.552,11.551 0,6.382 -5.172,11.552 -11.552,11.552 z"
   id="path13" />
	<path
   style="fill:#449ad5"
   d="m 638.9,335.694 c -6.379,0 -11.551,-5.172 -11.551,-11.551 0,-6.381 5.172,-11.552 11.551,-11.552 6.379,0 11.551,5.171 11.551,11.552 0,6.379 -5.172,11.551 -11.551,11.551 z"
   id="path14" />
	<path
   style="fill:#449ad5"
   d="m 601.359,307.012 c -6.38,0 -11.551,-5.17 -11.551,-11.551 0,-6.379 5.17,-11.551 11.551,-11.551 6.379,0 11.552,5.172 11.552,11.551 0,6.38 -5.173,11.551 -11.552,11.551 z"
   id="path15" />
	<path
   style="fill:#449ad5"
   d="m 570.555,307.012 c -6.379,0 -11.55,-5.17 -11.55,-11.551 0,-6.379 5.171,-11.551 11.55,-11.551 6.379,0 11.552,5.172 11.552,11.551 0,6.38 -5.173,11.551 -11.552,11.551 z"
   id="path16" />
	<path
   style="fill:#449ad5"
   d="m 550.341,326.264 c -6.379,0 -11.551,-5.171 -11.551,-11.551 0,-6.379 5.172,-11.552 11.551,-11.552 6.379,0 11.551,5.172 11.551,11.552 0,6.38 -5.171,11.551 -11.551,11.551 z"
   id="path17" />
	<path
   style="fill:#449ad5"
   d="m 581.145,490.451 c -6.379,0 -11.552,-5.171 -11.552,-11.552 0,-6.379 5.172,-11.551 11.552,-11.551 6.379,0 11.551,5.172 11.551,11.551 0,6.381 -5.172,11.552 -11.551,11.552 z"
   id="path18" />
	<path
   style="fill:#449ad5"
   d="m 567.668,535.693 c -6.379,0 -11.552,-5.17 -11.552,-11.55 0,-6.38 5.173,-11.553 11.552,-11.553 6.379,0 11.551,5.172 11.551,11.553 0,6.38 -5.172,11.55 -11.551,11.55 z"
   id="path19" />
	<path
   style="fill:#449ad5"
   d="m 516.65,476.012 c -6.378,0 -11.55,-5.171 -11.55,-11.552 0,-6.38 5.172,-11.549 11.55,-11.549 6.38,0 11.552,5.169 11.552,11.549 0,6.381 -5.172,11.552 -11.552,11.552 z"
   id="path20" />
	<path
   style="fill:#449ad5"
   d="m 542.64,428.844 c -6.378,0 -11.55,-5.17 -11.55,-11.549 0,-6.381 5.172,-11.553 11.55,-11.553 6.38,0 11.552,5.172 11.552,11.553 0,6.379 -5.172,11.549 -11.552,11.549 z"
   id="path21" />
	<path
   style="fill:#449ad5"
   d="m 515.688,428.844 c -6.379,0 -11.551,-5.17 -11.551,-11.549 0,-6.381 5.171,-11.553 11.551,-11.553 6.379,0 11.551,5.172 11.551,11.553 0,6.379 -5.173,11.549 -11.551,11.549 z"
   id="path22" />
	<path
   style="fill:#449ad5"
   d="m 472.049,397.079 c -6.379,0 -11.551,-5.17 -11.551,-11.551 0,-6.381 5.171,-11.551 11.551,-11.551 6.38,0 11.551,5.17 11.551,11.551 10e-4,6.381 -5.171,11.551 -11.551,11.551 z"
   id="path23" />
	<path
   style="fill:#449ad5"
   d="m 520.099,350.502 c -4.652,0 -8.422,-3.77 -8.422,-8.423 0,-4.651 3.77,-8.423 8.422,-8.423 4.652,0 8.423,3.772 8.423,8.423 0,4.653 -3.772,8.423 -8.423,8.423 z"
   id="path24" />
	<path
   style="fill:#449ad5"
   d="m 486.81,342.211 c -6.379,0 -11.551,-5.171 -11.551,-11.552 0,-6.38 5.172,-11.551 11.551,-11.551 6.379,0 11.551,5.171 11.551,11.551 0,6.382 -5.172,11.552 -11.551,11.552 z"
   id="path25" />
	<path
   style="fill:#449ad5"
   d="m 487.772,463.499 c -6.379,0 -11.551,-5.172 -11.551,-11.551 0,-6.379 5.171,-11.551 11.551,-11.551 6.379,0 11.551,5.172 11.551,11.551 0.001,6.378 -5.172,11.551 -11.551,11.551 z"
   id="path26" />
	<path
   style="fill:#449ad5"
   d="m 375.148,398.524 c -8.24,0 -14.92,-6.681 -14.92,-14.921 0,-8.241 6.68,-14.92 14.92,-14.92 8.24,0 14.921,6.679 14.921,14.92 0,8.24 -6.681,14.921 -14.921,14.921 z"
   id="path27" />
	<path
   style="fill:#449ad5"
   d="m 207.014,547.726 c -8.24,0 -14.92,-6.68 -14.92,-14.92 0,-8.24 6.68,-14.92 14.92,-14.92 8.24,0 14.921,6.68 14.921,14.92 0,8.24 -6.681,14.92 -14.921,14.92 z"
   id="path28" />
	<path
   style="fill:#449ad5"
   d="m 430.979,358.574 c -6.379,0 -11.551,-5.169 -11.551,-11.549 0,-6.381 5.172,-11.552 11.55,-11.552 6.38,0 11.552,5.171 11.552,11.552 0,6.38 -5.172,11.549 -11.551,11.549 z"
   id="path29" />
	<path
   style="fill:#449ad5"
   d="m 403.064,321.034 c -6.379,0 -11.552,-5.17 -11.552,-11.551 0,-6.379 5.172,-11.551 11.552,-11.551 6.379,0 11.551,5.172 11.551,11.551 0,6.38 -5.172,11.551 -11.551,11.551 z"
   id="path30" />
	<path
   style="fill:#449ad5"
   d="m 371.299,321.034 c -6.38,0 -11.552,-5.17 -11.553,-11.551 0,-6.379 5.173,-11.551 11.553,-11.551 6.378,0 11.55,5.172 11.55,11.551 0,6.38 -5.172,11.551 -11.55,11.551 z"
   id="path31" />
	<path
   style="fill:#449ad5"
   d="m 499.324,574.197 c -6.38,0 -11.551,-5.171 -11.551,-11.55 0,-6.381 5.171,-11.551 11.551,-11.551 6.379,0 11.551,5.17 11.551,11.551 0,6.379 -5.172,11.55 -11.551,11.55 z"
   id="path32" />
	<path
   style="fill:#449ad5"
   d="m 327.019,653.13 c -6.379,0 -11.552,-5.171 -11.552,-11.551 0,-6.38 5.173,-11.551 11.552,-11.551 6.379,0 11.551,5.171 11.551,11.551 0,6.38 -5.173,11.551 -11.551,11.551 z"
   id="path33" />
	<path
   style="fill:#449ad5"
   d="m 330.95,614.305 c -3.854,0 -6.979,-3.123 -6.979,-6.977 0,-3.854 3.125,-6.98 6.979,-6.98 3.853,0 6.979,3.125 6.979,6.98 0,3.854 -3.126,6.977 -6.979,6.977 z"
   id="path34" />
	<path
   style="fill:#449ad5"
   d="m 251.936,651.204 c -6.379,0 -11.552,-5.17 -11.552,-11.551 0,-6.38 5.172,-11.551 11.552,-11.551 6.379,0 11.55,5.171 11.55,11.551 0,6.381 -5.171,11.551 -11.55,11.551 z"
   id="path35" />
	<path
   style="fill:#449ad5"
   d="m 227.87,651.204 c -6.379,0 -11.55,-5.17 -11.55,-11.551 0,-6.38 5.171,-11.551 11.55,-11.551 6.38,0 11.552,5.171 11.552,11.551 0,6.381 -5.172,11.551 -11.552,11.551 z"
   id="path36" />
	<path
   style="fill:#449ad5"
   d="m 229.796,615.588 c -6.379,0 -11.552,-5.169 -11.552,-11.55 0,-6.381 5.172,-11.552 11.552,-11.552 6.379,0 11.551,5.171 11.551,11.552 0,6.381 -5.172,11.55 -11.551,11.55 z"
   id="path37" />
	<path
   style="fill:#449ad5"
   d="m 202.844,604.038 c -6.379,0 -11.552,-5.171 -11.552,-11.552 0,-6.38 5.172,-11.551 11.552,-11.551 6.379,0 11.551,5.171 11.551,11.551 0,6.381 -5.172,11.552 -11.551,11.552 z"
   id="path38" />
	<path
   style="fill:#449ad5"
   d="m 303.676,741.948 c -6.379,0 -11.551,-5.173 -11.551,-11.552 0,-6.38 5.172,-11.552 11.551,-11.552 6.379,0 11.552,5.172 11.552,11.552 0,6.379 -5.173,11.552 -11.552,11.552 z"
   id="path39" />
	<path
   style="fill:#449ad5"
   d="m 127.76,710.886 c -6.379,0 -11.551,-5.171 -11.551,-11.552 0,-6.379 5.171,-11.552 11.551,-11.552 6.379,0 11.551,5.173 11.551,11.552 0,6.381 -5.171,11.552 -11.551,11.552 z"
   id="path40" />
	<path
   style="fill:#449ad5"
   d="m 304.638,767.937 c -6.379,0 -11.55,-5.171 -11.55,-11.552 0,-6.379 5.171,-11.55 11.55,-11.55 6.379,0 11.552,5.171 11.552,11.552 0,6.379 -5.173,11.55 -11.552,11.55 z"
   id="path41" />
	<path
   style="fill:#449ad5"
   d="m 328.944,583.822 c -6.379,0 -11.551,-5.17 -11.551,-11.551 0,-6.379 5.172,-11.551 11.551,-11.551 6.379,0 11.551,5.172 11.551,11.551 0,6.381 -5.172,11.551 -11.551,11.551 z"
   id="path42" />
	<path
   style="fill:#449ad5"
   d="m 323.809,546.283 c -6.379,0 -11.551,-5.172 -11.551,-11.552 0,-6.38 5.172,-11.551 11.551,-11.551 6.381,0 11.551,5.171 11.551,11.551 0,6.379 -5.17,11.552 -11.551,11.552 z"
   id="path43" />
	<path
   style="fill:#449ad5"
   d="m 271.188,424.995 c -6.379,0 -11.55,-5.172 -11.55,-11.552 0,-6.38 5.171,-11.551 11.55,-11.551 6.379,0 11.552,5.171 11.552,11.551 -0.001,6.38 -5.174,11.552 -11.552,11.552 z"
   id="path44" />
	<path
   style="fill:#449ad5"
   d="m 276,393.228 c -6.379,0 -11.55,-5.17 -11.55,-11.549 0,-6.381 5.171,-11.552 11.55,-11.552 6.379,0 11.552,5.171 11.552,11.552 0,6.379 -5.172,11.549 -11.552,11.549 z"
   id="path45" />
	<path
   style="fill:#449ad5"
   d="m 214.395,406.705 c -6.379,0 -11.551,-5.172 -11.551,-11.551 0,-6.379 5.172,-11.551 11.551,-11.551 6.379,0 11.55,5.172 11.55,11.551 0,6.379 -5.171,11.551 -11.55,11.551 z"
   id="path46" />
	<path
   style="fill:#449ad5"
   d="m 255.786,343.173 c -6.379,0 -11.552,-5.171 -11.552,-11.552 0,-6.379 5.173,-11.551 11.552,-11.551 6.379,0 11.551,5.172 11.551,11.551 0,6.381 -5.172,11.552 -11.551,11.552 z"
   id="path47" />
	<path
   style="fill:#449ad5"
   d="m 227.87,375.902 c -6.379,0 -11.55,-5.17 -11.55,-11.551 0,-6.379 5.171,-11.552 11.55,-11.552 6.38,0 11.552,5.173 11.552,11.552 0,6.381 -5.172,11.551 -11.552,11.551 z"
   id="path48" />
	<path
   style="fill:#449ad5"
   d="m 311.617,390.341 c -6.38,0 -11.55,-5.171 -11.55,-11.552 0,-6.379 5.17,-11.551 11.55,-11.551 6.379,0 11.551,5.172 11.551,11.551 0,6.381 -5.172,11.552 -11.551,11.552 z"
   id="path49" />
	
		<circle
   transform="matrix(0.7071,-0.7071,0.7071,0.7071,-185.8383,707.6007)"
   style="fill:#449ad5"
   cx="761.22998"
   cy="578.12701"
   id="ellipse49"
   r="15.161" />
	<path
   style="fill:#449ad5"
   d="m 765,639.653 c -9.57,0 -17.326,-7.757 -17.326,-17.325 0,-9.569 7.756,-17.328 17.326,-17.328 9.57,0 17.328,7.759 17.328,17.328 0,9.568 -7.758,17.325 -17.328,17.325 z"
   id="path50" />
	<path
   style="fill:#449ad5"
   d="m 762.113,684.896 c -9.57,0 -17.327,-7.758 -17.327,-17.326 0,-9.569 7.757,-17.327 17.327,-17.327 9.569,0 17.327,7.758 17.327,17.327 0,9.568 -7.757,17.326 -17.327,17.326 z"
   id="path51" />
	
		<ellipse
   transform="matrix(0.0119,-0.9999,0.9999,0.0119,45.3477,1461.381)"
   style="fill:#449ad5"
   cx="762.11298"
   cy="707.745"
   rx="17.326"
   ry="17.327"
   id="ellipse51" />
	<path
   style="fill:#449ad5"
   d="m 872.813,592.486 c -9.57,0 -17.328,-7.758 -17.328,-17.326 0,-9.568 7.758,-17.328 17.328,-17.328 9.568,0 17.326,7.76 17.326,17.328 0,9.569 -7.758,17.326 -17.326,17.326 z"
   id="path52" />
	<path
   style="fill:#449ad5"
   d="m 872.813,637.729 c -9.57,0 -17.328,-7.759 -17.328,-17.327 0,-9.568 7.758,-17.326 17.328,-17.326 9.568,0 17.326,7.758 17.326,17.326 0,9.569 -7.758,17.327 -17.326,17.327 z"
   id="path53" />
	<path
   style="fill:#449ad5"
   d="m 1017.684,501.039 c -9.837,0 -17.809,-7.972 -17.809,-17.807 0,-9.835 7.972,-17.809 17.809,-17.809 9.834,0 17.808,7.974 17.808,17.809 -10e-4,9.834 -7.974,17.807 -17.808,17.807 z"
   id="path54" />
	<path
   style="fill:#449ad5"
   d="m 1017.684,545.319 c -9.837,0 -17.809,-7.972 -17.809,-17.807 0,-9.837 7.972,-17.809 17.809,-17.809 9.834,0 17.808,7.972 17.808,17.809 -10e-4,9.835 -7.974,17.807 -17.808,17.807 z"
   id="path55" />
	<path
   style="fill:#449ad5"
   d="m 1017.684,589.599 c -9.837,0 -17.809,-7.972 -17.809,-17.809 0,-9.835 7.972,-17.807 17.809,-17.807 9.834,0 17.808,7.972 17.808,17.807 -10e-4,9.837 -7.974,17.809 -17.808,17.809 z"
   id="path56" />
	<path
   style="fill:#449ad5"
   d="m 1017.684,633.879 c -9.837,0 -17.809,-7.974 -17.809,-17.809 0,-9.835 7.972,-17.807 17.809,-17.807 9.834,0 17.808,7.972 17.808,17.807 -10e-4,9.835 -7.974,17.809 -17.808,17.809 z"
   id="path57" />
	<path
   style="fill:#449ad5"
   d="m 1042.229,644.466 c -5.317,0 -9.626,-4.31 -9.626,-9.625 0,-5.315 4.309,-9.626 9.626,-9.626 5.317,0 9.626,4.311 9.626,9.626 0,5.315 -4.308,9.625 -9.626,9.625 z"
   id="path58" />
	
		<circle
   transform="matrix(0.2298,-0.9732,0.9732,0.2298,137.4927,1508.868)"
   style="fill:#449ad5"
   cx="1022.014"
   cy="667.56897"
   id="ellipse58"
   r="9.6260004" />
	<path
   style="fill:#449ad5"
   d="m 919.979,633.879 c -5.316,0 -9.624,-4.31 -9.624,-9.627 0,-5.316 4.308,-9.625 9.624,-9.625 5.317,0 9.628,4.309 9.628,9.625 -10e-4,5.317 -4.311,9.627 -9.628,9.627 z"
   id="path59" />
	<path
   style="fill:#449ad5"
   d="m 920.942,378.789 c -5.318,0 -9.626,-4.31 -9.626,-9.626 0,-5.316 4.308,-9.626 9.626,-9.626 5.315,0 9.626,4.31 9.626,9.626 0,5.317 -4.31,9.626 -9.626,9.626 z"
   id="path60" />
	<path
   style="fill:#449ad5"
   d="m 844.576,364.03 c -5.317,0 -9.628,-4.31 -9.628,-9.626 0,-5.317 4.311,-9.626 9.628,-9.626 5.315,0 9.624,4.309 9.624,9.626 0,5.316 -4.308,9.626 -9.624,9.626 z"
   id="path61" />
	<path
   style="fill:#449ad5"
   d="m 813.13,390.341 c -5.316,0 -9.624,-4.31 -9.624,-9.626 0,-5.316 4.308,-9.626 9.624,-9.626 5.317,0 9.628,4.31 9.628,9.626 0,5.316 -4.311,9.626 -9.628,9.626 z"
   id="path62" />
	<circle
   style="fill:#449ad5"
   cx="684.14203"
   cy="523.17999"
   r="9.6260004"
   id="circle62" />
	<path
   style="fill:#449ad5"
   d="m 700.506,562.647 c -5.315,0 -9.625,-4.31 -9.625,-9.628 0,-5.316 4.31,-9.625 9.625,-9.625 5.318,0 9.626,4.309 9.626,9.625 0,5.318 -4.308,9.628 -9.626,9.628 z"
   id="path63" />
	<path
   style="fill:#449ad5"
   d="m 669.703,562.647 c -5.316,0 -9.626,-4.31 -9.626,-9.628 0,-5.316 4.31,-9.625 9.626,-9.625 5.317,0 9.626,4.309 9.626,9.625 0,5.318 -4.308,9.628 -9.626,9.628 z"
   id="path64" />
	<path
   style="fill:#449ad5"
   d="m 702.432,658.906 c -5.315,0 -9.626,-4.312 -9.626,-9.627 0,-5.315 4.31,-9.626 9.626,-9.626 5.317,0 9.626,4.311 9.626,9.626 0,5.316 -4.309,9.627 -9.626,9.627 z"
   id="path65" />
	<path
   style="fill:#449ad5"
   d="m 992.175,663.718 c -5.318,0 -9.626,-4.31 -9.626,-9.624 0,-5.317 4.308,-9.628 9.626,-9.628 5.315,0 9.626,4.311 9.626,9.628 0,5.314 -4.311,9.624 -9.626,9.624 z"
   id="path66" />
	<path
   style="fill:#449ad5"
   d="m 658.152,658.906 c -5.316,0 -9.625,-4.312 -9.625,-9.627 0,-5.315 4.309,-9.626 9.625,-9.626 5.317,0 9.627,4.311 9.627,9.626 0,5.316 -4.31,9.627 -9.627,9.627 z"
   id="path67" />
	<circle
   style="fill:#449ad5"
   cx="518.57599"
   cy="653.13"
   r="9.6260004"
   id="circle67" />
	<path
   style="fill:#449ad5"
   d="m 517.613,553.02 c -5.316,0 -9.626,-4.311 -9.626,-9.625 0,-5.317 4.31,-9.627 9.626,-9.627 5.316,0 9.626,4.31 9.626,9.627 0,5.314 -4.31,9.625 -9.626,9.625 z"
   id="path68" />
	<path
   style="fill:#449ad5"
   d="m 439.642,565.534 c -5.316,0 -9.626,-4.31 -9.626,-9.626 0,-5.315 4.31,-9.625 9.626,-9.625 5.316,0 9.626,4.31 9.626,9.625 0,5.316 -4.31,9.626 -9.626,9.626 z"
   id="path69" />
	<path
   style="fill:#449ad5"
   d="m 432.904,469.273 c -5.316,0 -9.627,-4.31 -9.627,-9.626 0,-5.315 4.311,-9.626 9.627,-9.626 5.316,0 9.626,4.311 9.626,9.626 0,5.316 -4.31,9.626 -9.626,9.626 z"
   id="path70" />
	<circle
   style="fill:#449ad5"
   cx="391.51199"
   cy="459.647"
   r="9.6260004"
   id="circle70" />
	
		<circle
   transform="matrix(0.1607,-0.987,0.987,0.1607,-114.0999,735.0676)"
   style="fill:#449ad5"
   cx="375.14801"
   cy="434.621"
   id="ellipse70"
   r="9.6260004" />
	<path
   style="fill:#449ad5"
   d="m 334.719,426.919 c -5.316,0 -9.626,-4.31 -9.626,-9.624 0,-5.318 4.31,-9.628 9.626,-9.628 5.316,0 9.626,4.31 9.626,9.628 0,5.314 -4.31,9.624 -9.626,9.624 z"
   id="path71" />
	<path
   style="fill:#449ad5"
   d="m 345.308,470.237 c -5.315,0 -9.626,-4.31 -9.626,-9.626 0,-5.317 4.31,-9.626 9.626,-9.626 5.316,0 9.626,4.309 9.626,9.626 0,5.316 -4.31,9.626 -9.626,9.626 z"
   id="path72" />
	<path
   style="fill:#449ad5"
   d="m 424.241,530.88 c -5.316,0 -9.626,-4.31 -9.626,-9.626 0,-5.315 4.31,-9.625 9.626,-9.625 5.316,0 9.626,4.31 9.626,9.625 0,5.316 -4.31,9.626 -9.626,9.626 z"
   id="path73" />
	<path
   style="fill:#449ad5"
   d="m 390.55,512.911 c -5.316,0 -9.626,-4.308 -9.626,-9.624 0,-5.317 4.31,-9.627 9.626,-9.627 5.316,0 9.626,4.31 9.626,9.627 0,5.316 -4.31,9.624 -9.626,9.624 z"
   id="path74" />
	<path
   style="fill:#449ad5"
   d="m 455.044,307.974 c -5.316,0 -9.626,-4.308 -9.626,-9.624 0,-5.317 4.31,-9.628 9.626,-9.628 5.316,0 9.626,4.311 9.626,9.628 0,5.316 -4.31,9.624 -9.626,9.624 z"
   id="path75" />
	<path
   style="fill:#449ad5"
   d="m 403.064,602.112 c -5.316,0 -9.626,-4.31 -9.626,-9.626 0,-5.315 4.31,-9.626 9.626,-9.626 5.316,0 9.626,4.31 9.626,9.626 0,5.316 -4.31,9.626 -9.626,9.626 z"
   id="path76" />
	<path
   style="fill:#449ad5"
   d="m 186.479,460.611 c -5.316,0 -9.626,-4.312 -9.626,-9.628 0,-5.314 4.31,-9.626 9.626,-9.626 5.316,0 9.626,4.311 9.626,9.626 0,5.316 -4.31,9.628 -9.626,9.628 z"
   id="path77" />
	<circle
   style="fill:#449ad5"
   cx="186.479"
   cy="477.93799"
   r="9.6260004"
   id="circle77" />
	
		<circle
   transform="matrix(0.9229,-0.3849,0.3849,0.9229,-171.5358,98.978)"
   style="fill:#449ad5"
   cx="161.452"
   cy="477.93799"
   id="ellipse77"
   r="9.6260004" />
	<path
   style="fill:#449ad5"
   d="m 511.838,696.446 c -5.316,0 -9.626,-4.31 -9.626,-9.626 0,-5.315 4.31,-9.625 9.626,-9.625 5.316,0 9.626,4.31 9.626,9.625 0,5.317 -4.31,9.626 -9.626,9.626 z"
   id="path78" />
	
		<circle
   transform="matrix(0.2288,-0.9735,0.9735,0.2288,-275.9575,994.4999)"
   style="fill:#449ad5"
   cx="489.698"
   cy="671.41998"
   id="ellipse78"
   r="9.6260004" />
	<path
   style="fill:#449ad5"
   d="m 489.698,647.354 c -5.317,0 -9.626,-4.31 -9.626,-9.624 0,-5.316 4.309,-9.627 9.626,-9.627 5.316,0 9.626,4.311 9.626,9.627 0,5.314 -4.31,9.624 -9.626,9.624 z"
   id="path79" />
	
		<circle
   transform="matrix(0.2307,-0.973,0.973,0.2307,-303.7326,1011.9352)"
   style="fill:#449ad5"
   cx="488.09399"
   cy="698.052"
   id="ellipse79"
   r="9.6260004" />
	<path
   style="fill:#449ad5"
   d="m 422.692,676.807 c -5.315,0 -9.626,-4.311 -9.626,-9.628 0,-5.313 4.311,-9.626 9.626,-9.626 5.317,0 9.627,4.313 9.627,9.626 0,5.316 -4.31,9.628 -9.627,9.628 z"
   id="path80" />
	<path
   style="fill:#449ad5"
   d="m 403.064,636.767 c -5.316,0 -9.626,-4.31 -9.626,-9.628 0,-5.315 4.31,-9.624 9.626,-9.624 5.316,0 9.626,4.309 9.626,9.624 0,5.317 -4.31,9.628 -9.626,9.628 z"
   id="path81" />
	
		<circle
   transform="matrix(0.1607,-0.987,0.987,0.1607,-301.3634,884.4916)"
   style="fill:#449ad5"
   cx="369.37299"
   cy="619.43903"
   id="ellipse81"
   r="9.6260004" />
	<path
   style="fill:#449ad5"
   d="m 456.006,276.754 c -5.316,0 -9.626,-4.31 -9.626,-9.624 0,-5.317 4.31,-9.627 9.626,-9.627 5.316,0 9.626,4.31 9.626,9.627 0,5.313 -4.31,9.624 -9.626,9.624 z"
   id="path82" />
	<path
   style="fill:#449ad5"
   d="m 433.867,276.754 c -5.316,0 -9.626,-4.31 -9.626,-9.624 0,-5.317 4.31,-9.627 9.626,-9.627 5.315,0 9.626,4.31 9.626,9.627 0,5.313 -4.31,9.624 -9.626,9.624 z"
   id="path83" />
	<path
   style="fill:#449ad5"
   d="m 515.688,264.657 c -5.316,0 -9.626,-4.31 -9.626,-9.624 0,-5.318 4.31,-9.628 9.626,-9.628 5.315,0 9.625,4.31 9.625,9.628 0,5.314 -4.31,9.624 -9.625,9.624 z"
   id="path84" />
	<path
   style="fill:#449ad5"
   d="m 539.752,264.657 c -5.315,0 -9.626,-4.31 -9.626,-9.624 0,-5.318 4.311,-9.628 9.626,-9.628 5.316,0 9.627,4.31 9.627,9.628 0,5.314 -4.311,9.624 -9.627,9.624 z"
   id="path85" />
	<circle
   style="fill:#449ad5"
   cx="282.418"
   cy="655.05603"
   r="9.6260004"
   id="circle85" />
	<path
   style="fill:#449ad5"
   d="m 251.294,556.55 c -5.316,0 -9.626,-4.31 -9.626,-9.626 0,-5.316 4.309,-9.626 9.626,-9.626 5.317,0 9.627,4.31 9.627,9.626 0,5.316 -4.31,9.626 -9.627,9.626 z"
   id="path86" />
	<path
   style="fill:#449ad5"
   d="m 242.31,526.067 c -5.317,0 -9.626,-4.31 -9.626,-9.625 0,-5.316 4.309,-9.626 9.626,-9.626 5.316,0 9.626,4.31 9.626,9.626 0,5.315 -4.31,9.625 -9.626,9.625 z"
   id="path87" />
	<path
   style="fill:#449ad5"
   d="m 279.851,527.993 c -5.315,0 -9.625,-4.31 -9.625,-9.626 0,-5.316 4.31,-9.626 9.625,-9.626 5.316,0 9.626,4.31 9.626,9.626 0,5.316 -4.31,9.626 -9.626,9.626 z"
   id="path88" />
	<path
   style="fill:#449ad5"
   d="m 262.283,710.182 c -5.316,0 -9.626,-4.309 -9.626,-9.627 0,-5.314 4.31,-9.625 9.626,-9.625 5.317,0 9.627,4.311 9.627,9.625 0,5.317 -4.309,9.627 -9.627,9.627 z"
   id="path89" />
	
		<circle
   transform="matrix(0.6638,-0.7479,0.7479,0.6638,-415.4248,424.1892)"
   style="fill:#449ad5"
   cx="264.12299"
   cy="674.18103"
   id="ellipse89"
   r="9.6260004" />
	<rect
   x="854.52301"
   y="470.237"
   style="fill:#449ad5"
   width="32.728001"
   height="32.727001"
   id="rect89" />
	<rect
   x="854.52301"
   y="648.31702"
   style="fill:#449ad5"
   width="32.728001"
   height="32.729"
   id="rect90" />
	<rect
   x="838.97198"
   y="886.77802"
   style="fill:#449ad5"
   width="32.726002"
   height="32.729"
   id="rect91" />
	<rect
   x="209.582"
   y="656.98199"
   style="fill:#449ad5"
   width="32.728001"
   height="32.729"
   id="rect92" />
	<rect
   x="182.62801"
   y="417.453"
   style="fill:#449ad5"
   width="21.658001"
   height="21.66"
   id="rect93" />
	<rect
   x="156.638"
   y="417.453"
   style="fill:#449ad5"
   width="21.659"
   height="21.66"
   id="rect94" />
	<g
   id="g94">
		<polygon
   style="fill:#449ad5"
   points="877.543,900.585 902.525,875.602 902.525,863.328 971.11,794.742 971.11,764.093 938.864,731.845 938.864,715.645 942.713,715.645 942.713,730.25 974.961,762.496 974.961,796.339 906.377,864.925 906.377,877.198 879.138,904.436 863.78,904.436 863.78,900.585 "
   id="polygon94" />
	</g>
	<g
   id="g95">
		<polygon
   style="fill:#449ad5"
   points="948.783,652.168 992.175,652.168 992.175,656.018 947.005,656.018 924.288,629.352 927.22,626.854 "
   id="polygon95" />
	</g>
	<path
   style="fill:#449ad5"
   d="m 345.528,776.832 c -5.316,0 -9.625,-4.311 -9.625,-9.628 0,-5.315 4.309,-9.624 9.625,-9.624 5.317,0 9.626,4.309 9.626,9.624 0,5.317 -4.309,9.628 -9.626,9.628 z"
   id="path95" />
	<path
   style="fill:#449ad5"
   d="m 417.723,806.672 c -5.316,0 -9.625,-4.311 -9.625,-9.626 0,-5.316 4.309,-9.626 9.625,-9.626 5.317,0 9.626,4.31 9.626,9.626 0,5.315 -4.309,9.626 -9.626,9.626 z"
   id="path96" />
	<g
   id="g96">
		<polygon
   style="fill:#449ad5"
   points="374.333,795.12 417.723,795.12 417.723,798.971 372.554,798.971 349.838,772.304 352.769,769.807 "
   id="polygon96" />
	</g>
	<g
   id="g97">
		<polygon
   style="fill:#449ad5"
   points="293.389,392.285 343.232,393.245 351.893,401.904 415.418,402.866 500.14,486.625 560.742,488.549 600.698,525.205 601.343,556.017 641.586,593.454 970.74,595.379 994.723,615.523 1004.514,614.634 1004.863,618.468 993.474,619.504 969.328,599.22 640.064,597.294 597.525,557.724 596.884,526.93 559.191,492.353 498.508,490.426 497.969,489.896 413.811,406.693 350.274,405.73 341.607,397.064 291.343,396.097 282.119,382.772 285.285,380.582 "
   id="polygon97" />
	</g>
	<g
   id="g98">
		<polygon
   style="fill:#449ad5"
   points="389.616,362.418 412.727,381.036 435.973,381.036 478.384,425.375 504.603,427.292 515.479,436.891 574.588,438.818 619.492,483.723 670.842,484.364 742.065,556.87 811.023,556.87 850.176,515.792 923.671,516.448 980.756,573.533 1003.672,572.914 1003.778,576.765 979.205,577.428 922.063,520.286 851.81,519.656 812.673,560.72 740.449,560.72 669.207,488.196 617.878,487.553 572.941,442.617 513.97,440.694 503.029,431.038 476.625,429.107 434.328,384.885 411.368,384.885 388.275,366.283 326.306,366.909 319.176,375.231 316.251,372.724 324.522,363.076 "
   id="polygon98" />
	</g>
	<g
   id="g99">
		<polygon
   style="fill:#449ad5"
   points="412.244,415.07 412.789,415.634 489.254,494.646 510.415,495.288 636.171,621.685 750.884,621.685 750.884,625.536 634.571,625.536 508.767,499.091 487.574,498.448 487.031,497.886 410.567,418.876 343.969,416.972 344.079,413.123 "
   id="polygon99" />
	</g>
	<g
   id="g100">
		<polygon
   style="fill:#449ad5"
   points="497.488,373.34 601.488,373.982 659.266,428.549 720.274,430.475 747.201,458.043 798.803,458.043 836.668,416.326 955.149,416.978 974.381,437.49 1002.399,436.867 1002.483,440.716 972.747,441.378 953.472,420.818 838.366,420.186 800.507,461.894 745.58,461.894 718.602,434.275 657.683,432.351 599.947,377.822 496.025,377.181 463.978,348.98 433.946,350.231 433.786,346.383 465.362,345.068 "
   id="polygon100" />
	</g>
	<path
   style="fill:#449ad5"
   d="m 946.404,806.679 c -9.837,0 -17.81,-7.973 -17.81,-17.808 0,-9.837 7.973,-17.81 17.81,-17.81 9.833,0 17.807,7.973 17.807,17.81 0,9.835 -7.974,17.808 -17.807,17.808 z"
   id="path100" />
	<path
   style="fill:#449ad5"
   d="m 359.7,708.493 c -6.379,0 -11.551,-5.171 -11.551,-11.552 0,-6.379 5.172,-11.552 11.551,-11.552 6.38,0 11.551,5.173 11.551,11.552 -10e-4,6.381 -5.172,11.552 -11.551,11.552 z"
   id="path101" />
	<g
   id="g101">
		<polygon
   style="fill:#449ad5"
   points="426.209,723.257 530.208,723.9 587.985,778.467 648.995,780.393 675.922,807.961 727.523,807.961 765.389,766.244 883.869,766.896 903.101,787.408 931.12,786.785 931.204,790.635 901.468,791.296 882.192,770.736 767.086,770.104 729.227,811.812 674.3,811.812 647.322,784.193 586.402,782.27 528.668,727.741 424.746,727.099 392.699,698.898 362.667,700.148 362.506,696.302 394.082,694.985 "
   id="polygon101" />
	</g>
	<g
   id="g102">
		<polygon
   style="fill:#449ad5"
   points="247.099,346.381 402.546,344.447 419.883,361.143 471.869,361.143 494.329,382.961 595.713,382.961 652.178,436.859 713.242,436.216 740.846,467.67 821.929,467.67 845.565,442.757 855.213,441.378 855.758,445.189 847.437,446.378 823.584,471.52 739.102,471.52 711.515,440.086 650.652,440.725 594.171,386.811 492.767,386.811 470.307,364.993 418.331,364.993 401.015,348.317 247.725,350.224 228.309,363.378 226.15,360.189 246.521,346.39 "
   id="polygon102" />
	</g>
	<g
   id="g103">
		<polygon
   style="fill:#449ad5"
   points="299.248,434.95 353.267,435.593 372.288,458.012 371.648,474.677 384.664,489.467 439.194,488.185 477.474,530.424 478.753,561.146 585.45,662.763 747.048,664.04 747.018,667.89 583.899,666.601 474.972,562.861 473.685,531.977 437.524,492.076 382.959,493.36 367.741,476.066 368.382,459.359 351.467,439.424 297.675,438.783 279.156,420.925 281.829,418.154 "
   id="polygon103" />
	</g>
	<g
   id="g104">
		<polygon
   style="fill:#449ad5"
   points="431.444,495.907 464.044,527.841 463.403,561.194 618.16,708.309 748.93,706.394 748.985,710.244 616.646,712.18 459.52,562.815 460.163,529.429 429.872,499.756 391.512,499.756 391.512,495.907 "
   id="polygon104" />
	</g>
	<g
   id="g105">
		<polygon
   style="fill:#449ad5"
   points="231.838,451.64 240.063,459.116 240.063,485.513 250.518,496.546 311.473,496.546 362.185,549.185 423.007,550.416 423.6,527.302 427.449,527.4 426.757,554.342 360.517,553.004 309.835,500.398 248.862,500.398 236.213,487.047 236.213,460.82 230.32,455.464 194.466,454.835 194.536,450.985 "
   id="polygon105" />
	</g>
	<g
   id="g106">
		<polygon
   style="fill:#449ad5"
   points="160.161,437.026 144.151,451.186 145.387,491.946 181.605,533.16 196.824,533.769 196.669,537.617 179.801,536.943 141.58,493.448 140.248,449.499 157.608,434.142 "
   id="polygon106" />
	</g>
	<path
   style="fill:#449ad5"
   d="m 773.023,851.949 c 0,-8.239 6.679,-14.92 14.919,-14.92 8.241,0 14.92,6.681 14.92,14.92 0,8.24 -6.679,14.921 -14.92,14.921 -8.24,0 -14.919,-6.68 -14.919,-14.921 z"
   id="path106" />
	<rect
   x="881.63501"
   y="801.573"
   style="fill:#449ad5"
   width="21.66"
   height="21.66"
   id="rect106" />
	<g
   id="g107">
		<polygon
   style="fill:#449ad5"
   points="883.723,805.097 869.563,789.087 828.803,790.322 787.589,826.541 786.979,841.76 783.132,841.604 783.805,824.737 827.301,786.515 871.25,785.184 886.606,802.544 "
   id="polygon107" />
	</g>
	<g
   id="g108">
		<polygon
   style="fill:#449ad5"
   points="277.685,690.061 277.685,725.839 294.948,725.264 295.076,729.113 273.835,729.819 273.835,691.156 265.781,678.145 269.055,676.118 "
   id="polygon108" />
	</g>
	<g
   id="g109">
		<polygon
   style="fill:#449ad5"
   points="262.926,705.369 262.926,725.652 295.614,753.313 293.127,756.252 259.076,727.44 259.076,705.369 "
   id="polygon109" />
	</g>
	<path
   style="fill:#449ad5"
   d="m 771.527,989.482 c -6.379,0 -11.551,-5.171 -11.551,-11.552 0,-6.379 5.172,-11.552 11.551,-11.552 6.38,0 11.552,5.173 11.552,11.552 0,6.381 -5.172,11.552 -11.552,11.552 z"
   id="path109" />
	<path
   style="fill:#449ad5"
   d="m 772.489,1015.472 c -6.379,0 -11.549,-5.171 -11.549,-11.552 0,-6.379 5.17,-11.552 11.549,-11.552 6.38,0 11.552,5.173 11.552,11.552 0,6.381 -5.172,11.552 -11.552,11.552 z"
   id="path110" />
	<path
   style="fill:#449ad5"
   d="m 730.135,957.716 c -5.316,0 -9.626,-4.31 -9.626,-9.628 0,-5.313 4.31,-9.624 9.626,-9.624 5.317,0 9.628,4.31 9.628,9.624 0,5.318 -4.311,9.628 -9.628,9.628 z"
   id="path111" />
	
		<circle
   transform="matrix(0.0044,-1,1,0.0044,-192.9417,1649.6399)"
   style="fill:#449ad5"
   cx="731.97498"
   cy="921.71503"
   id="ellipse111"
   r="9.6260004" />
	<g
   id="g111">
		<polygon
   style="fill:#449ad5"
   points="745.537,937.595 745.537,973.373 762.8,972.798 762.928,976.648 741.688,977.354 741.688,938.69 733.634,925.679 736.907,923.652 "
   id="polygon111" />
	</g>
	<g
   id="g112">
		<polygon
   style="fill:#449ad5"
   points="730.778,952.903 730.778,973.186 763.466,1000.847 760.979,1003.786 726.929,974.973 726.929,952.903 "
   id="polygon112" />
	</g>
	<path
   style="fill:#449ad5"
   d="m 845.733,732.691 c -6.379,0 -11.551,-5.171 -11.551,-11.55 0,-6.381 5.172,-11.552 11.551,-11.552 6.379,0 11.552,5.171 11.552,11.552 0,6.38 -5.173,11.55 -11.552,11.55 z"
   id="path112" />
	<path
   style="fill:#449ad5"
   d="m 846.695,758.682 c -6.379,0 -11.55,-5.17 -11.55,-11.551 0,-6.379 5.171,-11.552 11.55,-11.552 6.379,0 11.552,5.173 11.552,11.552 0,6.381 -5.173,11.551 -11.552,11.551 z"
   id="path113" />
	<path
   style="fill:#449ad5"
   d="m 804.341,700.926 c -5.315,0 -9.626,-4.311 -9.626,-9.626 0,-5.316 4.311,-9.626 9.626,-9.626 5.317,0 9.628,4.31 9.628,9.626 0,5.315 -4.311,9.626 -9.628,9.626 z"
   id="path114" />
	<path
   style="fill:#449ad5"
   d="m 806.181,674.551 c -5.316,0 -9.626,-4.311 -9.626,-9.625 0,-5.317 4.31,-9.627 9.626,-9.627 5.317,0 9.626,4.31 9.626,9.627 0,5.314 -4.309,9.625 -9.626,9.625 z"
   id="path115" />
	<g
   id="g115">
		<polygon
   style="fill:#449ad5"
   points="819.743,680.807 819.743,716.583 837.006,716.009 837.134,719.857 815.894,720.564 815.894,681.899 807.839,668.891 811.113,666.863 "
   id="polygon115" />
	</g>
	<g
   id="g116">
		<polygon
   style="fill:#449ad5"
   points="804.983,696.112 804.983,716.398 837.672,744.058 835.185,746.997 801.135,718.183 801.135,696.112 "
   id="polygon116" />
	</g>
	<g
   id="g117">
		<polygon
   style="fill:#449ad5"
   points="151.314,701.903 160.497,692.146 161.782,567.521 171.335,559.437 273.649,559.437 276.865,554.292 340.338,554.953 359.572,574.189 414.794,573.545 425.703,585.097 479.585,584.456 518.576,624.107 518.576,647.996 514.726,647.996 514.726,625.681 477.99,588.325 424.062,588.966 413.153,577.417 357.997,578.056 338.727,558.788 278.987,558.165 275.785,563.288 172.745,563.288 165.613,569.321 164.331,693.69 152.979,705.752 134.821,705.752 134.821,701.903 "
   id="polygon117" />
	</g>
	<g
   id="g118">
		<polygon
   style="fill:#449ad5"
   points="382.674,596.046 391.622,604.354 481.522,603.712 503.174,626.039 503.174,664.133 511.228,677.145 507.954,679.171 499.324,665.229 499.324,627.6 479.904,607.573 390.121,608.215 381.098,599.836 349.898,598.614 335.729,612.167 333.067,609.384 348.417,594.702 "
   id="polygon118" />
	</g>
	<g
   id="g119">
		<polygon
   style="fill:#449ad5"
   points="399.359,639.661 421.089,660.732 418.409,663.497 397.783,643.496 338.227,642.861 338.27,639.012 "
   id="polygon119" />
	</g>
	<g
   id="g120">
		<polygon
   style="fill:#449ad5"
   points="281.763,617.081 282.418,653.097 278.568,653.164 277.939,618.588 267.472,606.957 233.718,608.208 233.575,604.36 269.128,603.042 "
   id="polygon120" />
	</g>
	<g
   id="g121">
		<polygon
   style="fill:#449ad5"
   points="319.112,574.592 321.449,577.653 297.819,595.686 297.819,615.269 341.482,615.269 359.45,602.433 380.283,602.433 386.058,610.135 417.465,610.135 423.6,617.8 423.6,633.065 484.619,692.176 481.941,694.941 419.75,634.692 419.75,619.151 415.615,613.984 384.133,613.984 378.358,606.282 360.685,606.282 342.716,619.118 293.969,619.118 293.968,593.781 "
   id="polygon121" />
	</g>
	<g
   id="g122">
		<polygon
   style="fill:#449ad5"
   points="339.927,549.17 353.404,554.945 433.226,554.945 433.226,558.796 352.614,558.796 339.137,553.02 254.824,553.02 254.824,549.17 "
   id="polygon122" />
	</g>
	<g
   id="g123">
		<polygon
   style="fill:#449ad5"
   points="235.966,392.587 269.337,353.442 396.143,353.442 416.678,373.335 438.545,373.335 461.648,397.721 581.641,397.721 636.188,454.193 688.15,454.193 743.979,510.023 826.977,510.023 846.871,485.638 856.769,485.638 856.769,489.489 848.699,489.489 828.804,513.875 742.385,513.875 686.554,458.043 634.555,458.043 580.007,401.571 459.992,401.571 436.89,377.185 415.118,377.185 394.582,357.292 271.113,357.292 237.744,396.438 224.021,396.438 224.021,392.587 "
   id="polygon123" />
	</g>
	<g
   id="g124">
		<polygon
   style="fill:#449ad5"
   points="587.384,391.303 645.141,447.775 692.627,447.775 749.1,502.964 812.254,502.964 850.758,458.686 944.2,458.686 967.944,482.43 1003.085,482.43 1003.085,486.279 966.35,486.279 942.605,462.535 852.511,462.535 814.007,506.815 747.53,506.815 691.06,451.627 643.569,451.627 585.816,395.154 476.862,395.154 476.862,391.303 "
   id="polygon124" />
	</g>
	<g
   id="g125">
		<polygon
   style="fill:#449ad5"
   points="534.097,429.806 583.6,429.806 622.744,472.804 675.974,472.804 751.699,551.096 801.953,551.096 837.255,508.089 961.533,509.391 978.532,526.388 1006.934,526.388 1006.934,530.239 976.94,530.239 959.923,513.225 839.06,511.958 803.773,554.945 750.065,554.945 674.342,476.655 621.043,476.655 581.898,433.657 532.575,433.657 521.75,423.512 524.384,420.702 "
   id="polygon125" />
	</g>
	<g
   id="g126">
		<polygon
   style="fill:#449ad5"
   points="977.659,703.587 996.51,684.735 1027.474,684.735 1040.625,671.584 1040.625,660.354 1061.481,639.5 1061.481,628.258 1052.497,619.274 1052.497,518.367 1056.346,518.367 1056.346,617.679 1065.331,626.663 1065.331,641.093 1044.474,661.949 1044.474,673.18 1029.068,688.586 998.106,688.586 979.254,707.439 940.193,707.439 940.193,703.587 "
   id="polygon126" />
	</g>
	<g
   id="g127">
		<polygon
   style="fill:#449ad5"
   points="499.478,353.842 671.063,353.842 731.144,413.925 800.301,413.925 846.986,367.238 895.107,367.238 923.664,395.795 961.371,395.795 961.371,399.646 922.069,399.646 893.511,371.089 848.581,371.089 801.896,417.775 729.55,417.775 669.467,357.693 497.883,357.693 481.397,341.206 484.121,338.483 "
   id="polygon127" />
	</g>
	<g
   id="g128">
		<polygon
   style="fill:#449ad5"
   points="463.862,328.734 496.27,361.143 664.404,361.143 726.011,422.749 809.123,422.749 835.435,396.438 853.56,396.438 853.56,400.287 837.029,400.287 810.718,426.6 724.416,426.6 662.81,364.993 494.675,364.993 462.269,332.586 262.523,332.586 262.523,328.734 "
   id="polygon128" />
	</g>
	<g
   id="g129">
		<polygon
   style="fill:#449ad5"
   points="427.449,261.032 427.449,264.882 403.86,264.882 366.884,301.86 364.161,299.138 402.266,261.032 "
   id="polygon129" />
	</g>
	<g
   id="g130">
		<polygon
   style="fill:#449ad5"
   points="442.695,278.358 449.19,271.863 451.912,274.585 444.29,282.21 406.913,282.21 406.913,303.387 403.063,303.387 403.063,278.358 "
   id="polygon130" />
	</g>
	<path
   style="fill:#449ad5"
   d="m 333.676,715.614 c -6.379,0 -11.551,-5.171 -11.551,-11.552 0,-6.379 5.172,-11.551 11.551,-11.551 6.379,0 11.552,5.172 11.552,11.551 0,6.381 -5.173,11.552 -11.552,11.552 z"
   id="path130" />
	<path
   style="fill:#449ad5"
   d="m 301.911,715.614 c -6.379,0 -11.551,-5.171 -11.551,-11.552 0,-6.379 5.172,-11.551 11.551,-11.551 6.379,0 11.551,5.172 11.551,11.551 0,6.381 -5.172,11.552 -11.551,11.552 z"
   id="path131" />
	<path
   style="fill:#449ad5"
   d="m 386.619,671.334 c -5.316,0 -9.626,-4.311 -9.626,-9.624 0,-5.317 4.31,-9.628 9.626,-9.628 5.316,0 9.626,4.311 9.626,9.628 0,5.313 -4.31,9.624 -9.626,9.624 z"
   id="path132" />
	<path
   style="fill:#449ad5"
   d="m 364.479,671.334 c -5.316,0 -9.626,-4.311 -9.626,-9.624 0,-5.317 4.31,-9.628 9.626,-9.628 5.316,0 9.626,4.311 9.626,9.628 0,5.313 -4.31,9.624 -9.626,9.624 z"
   id="path133" />
	<g
   id="g133">
		<polygon
   style="fill:#449ad5"
   points="358.061,655.612 358.061,659.462 334.473,659.462 297.496,696.44 294.774,693.718 332.877,655.612 "
   id="polygon133" />
	</g>
	<g
   id="g134">
		<polygon
   style="fill:#449ad5"
   points="373.307,672.939 379.803,666.443 382.525,669.165 374.902,676.79 337.525,676.79 337.525,697.967 333.676,697.967 333.676,672.939 "
   id="polygon134" />
	</g>
	<g
   id="g135">
		<polygon
   style="fill:#449ad5"
   points="532.051,298.35 532.051,331.077 590.936,331.077 617.887,304.125 669.868,304.125 692.406,281.585 695.13,284.309 671.463,307.974 619.482,307.974 592.53,334.928 528.201,334.928 528.201,302.199 460.818,302.199 460.818,298.35 "
   id="polygon135" />
	</g>
	<g
   id="g136">
		<polygon
   style="fill:#449ad5"
   points="565.898,257.598 595.661,287.362 592.939,290.084 564.303,261.449 542.319,261.449 542.319,257.598 "
   id="polygon136" />
	</g>
	<path
   style="fill:#449ad5"
   d="m 734.589,898.955 c -6.379,0 -11.55,-5.17 -11.55,-11.55 0,-6.381 5.171,-11.552 11.55,-11.552 6.379,0 11.551,5.171 11.551,11.552 0,6.38 -5.172,11.55 -11.551,11.55 z"
   id="path136" />
	<path
   style="fill:#449ad5"
   d="m 672.982,856.602 c -5.316,0 -9.627,-4.31 -9.627,-9.626 0,-5.315 4.31,-9.626 9.627,-9.626 5.315,0 9.626,4.311 9.626,9.626 0,5.316 -4.31,9.626 -9.626,9.626 z"
   id="path137" />
	<g
   id="g137">
		<polygon
   style="fill:#449ad5"
   points="699.128,849.543 728.892,879.305 726.169,882.026 697.533,853.394 675.549,853.394 675.549,849.543 "
   id="polygon137" />
	</g>
	<g
   id="g138">
		<polygon
   style="fill:#449ad5"
   points="532.051,260.972 532.051,270.754 570.555,270.754 570.555,288.081 566.704,288.081 566.704,274.604 528.201,274.604 528.201,262.568 520.422,254.788 523.144,252.066 "
   id="polygon138" />
	</g>
	<path
   style="fill:#449ad5"
   d="m 693.675,899.712 c -6.379,0 -11.551,-5.17 -11.551,-11.551 0,-6.379 5.172,-11.552 11.551,-11.552 6.379,0 11.552,5.173 11.552,11.552 0,6.381 -5.173,11.551 -11.552,11.551 z"
   id="path138" />
	<path
   style="fill:#449ad5"
   d="m 638.807,857.357 c -5.315,0 -9.625,-4.31 -9.625,-9.624 0,-5.317 4.31,-9.628 9.625,-9.628 5.316,0 9.627,4.31 9.627,9.628 0,5.315 -4.311,9.624 -9.627,9.624 z"
   id="path139" />
	<g
   id="g139">
		<polygon
   style="fill:#449ad5"
   points="655.17,853.672 655.17,863.455 693.673,863.455 693.673,880.781 689.824,880.781 689.824,867.305 651.318,867.305 651.318,855.269 643.541,847.489 646.264,844.767 "
   id="polygon139" />
	</g>
	<g
   id="g140">
		<polygon
   style="fill:#449ad5"
   points="614.67,634.198 731.785,634.198 743.499,645.911 828.046,645.911 848.341,666.205 861.261,666.205 861.261,670.055 846.746,670.055 826.451,649.76 741.902,649.76 730.19,638.048 613.074,638.048 612.512,637.484 521.705,546.681 524.428,543.959 "
   id="polygon140" />
	</g>
	<g
   id="g141">
		<polygon
   style="fill:#449ad5"
   points="594.621,540.03 594.621,562.169 632.318,599.866 831.896,599.866 848.581,616.551 857.41,616.551 857.41,620.402 846.986,620.402 830.301,603.717 630.722,603.717 590.771,563.764 590.771,541.625 571.279,522.133 574.002,519.411 "
   id="polygon141" />
	</g>
	<g
   id="g142">
		<polygon
   style="fill:#449ad5"
   points="745.105,344.086 745.105,347.937 524.993,347.937 524.993,344.086 "
   id="polygon142" />
	</g>
	<path
   style="fill:#449ad5"
   d="m 522.07,836.386 c -9.569,0 -17.326,-7.757 -17.326,-17.326 0,-9.568 7.757,-17.326 17.326,-17.326 9.569,0 17.327,7.758 17.327,17.326 10e-4,9.569 -7.757,17.326 -17.327,17.326 z"
   id="path142" />
	<path
   style="fill:#449ad5"
   d="m 411.243,829.538 c -4.652,0 -8.422,-3.771 -8.422,-8.423 0,-4.65 3.77,-8.423 8.422,-8.423 4.652,0 8.423,3.772 8.423,8.423 0,4.653 -3.771,8.423 -8.423,8.423 z"
   id="path143" />
	<g
   id="g143">
		<polygon
   style="fill:#449ad5"
   points="509.236,818.419 509.236,822.27 415.132,822.27 415.132,818.419 "
   id="polygon143" />
	</g>
	<g
   id="g144">
		<polygon
   style="fill:#449ad5"
   points="894.146,341.891 916.527,364.273 913.806,366.995 892.549,345.742 871.306,345.742 849.226,355.835 847.625,352.333 870.467,341.891 "
   id="polygon144" />
	</g>
	<g
   id="g145">
		<polygon
   style="fill:#449ad5"
   points="579.695,413.764 630.072,464.14 681.089,464.14 747.912,530.963 745.19,533.685 679.494,467.991 628.476,467.991 578.101,417.614 551.303,417.614 551.303,413.764 "
   id="polygon145" />
	</g>
	<g
   id="g146">
		<polygon
   style="fill:#449ad5"
   points="508.463,478.258 562.048,478.258 585.472,501.682 655.42,501.682 668.741,515.002 668.741,526.553 679.164,536.977 711.251,536.977 732.914,558.641 732.914,574.84 747.032,574.84 747.032,578.689 729.063,578.689 729.063,560.235 709.654,540.828 677.568,540.828 664.891,528.149 664.891,516.597 653.824,505.533 583.876,505.533 560.452,482.109 506.868,482.109 484.646,459.887 487.368,457.164 "
   id="polygon146" />
	</g>
	<g
   id="g147">
		<polygon
   style="fill:#449ad5"
   points="396,385.047 404.501,393.549 425.358,393.549 465.467,433.657 502.046,433.657 513.597,445.209 552.102,445.209 577.051,470.158 574.329,472.882 550.505,449.06 512.002,449.06 500.45,437.508 463.872,437.508 423.764,397.4 402.908,397.4 394.404,388.896 384.453,388.896 384.453,385.047 "
   id="polygon147" />
	</g>
	<path
   style="fill:#449ad5"
   d="m 884.619,735.718 c -9.569,0 -17.326,-7.757 -17.326,-17.327 0,-9.568 7.757,-17.326 17.326,-17.326 9.57,0 17.328,7.758 17.328,17.326 0,9.57 -7.757,17.327 -17.328,17.327 z"
   id="path147" />
	<path
   style="fill:#449ad5"
   d="m 604.537,859.896 c -8.24,0 -14.919,-6.681 -14.919,-14.921 0,-8.241 6.679,-14.92 14.919,-14.92 8.24,0 14.922,6.679 14.922,14.92 0,8.24 -6.682,14.921 -14.922,14.921 z"
   id="path148" />
	<path
   style="fill:#449ad5"
   d="m 358.272,735.074 c -6.379,0 -11.552,-5.17 -11.552,-11.55 0,-6.381 5.172,-11.552 11.552,-11.552 6.379,0 11.551,5.171 11.551,11.552 0.001,6.38 -5.172,11.55 -11.551,11.55 z"
   id="path149" />
	<path
   style="fill:#449ad5"
   d="m 850.582,866.084 c -8.372,0 -15.159,-6.789 -15.159,-15.161 0,-8.374 6.787,-15.161 15.159,-15.161 8.374,0 15.163,6.787 15.163,15.161 0,8.372 -6.789,15.161 -15.163,15.161 z"
   id="path150" />
	<path
   style="fill:#449ad5"
   d="m 540.842,693.291 c -9.57,0 -17.326,-7.758 -17.326,-17.326 0,-9.568 7.756,-17.328 17.326,-17.328 9.57,0 17.328,7.76 17.328,17.328 0,9.568 -7.757,17.326 -17.328,17.326 z"
   id="path151" />
	<path
   style="fill:#449ad5"
   d="m 809.029,918.565 c -9.836,0 -17.808,-7.973 -17.808,-17.808 0,-9.837 7.972,-17.809 17.808,-17.809 9.835,0 17.809,7.972 17.809,17.809 0,9.835 -7.974,17.808 -17.809,17.808 z"
   id="path152" />
	<path
   style="fill:#449ad5"
   d="m 718.31,799.55 c -9.836,0 -17.808,-7.972 -17.808,-17.809 0,-9.835 7.972,-17.808 17.808,-17.808 9.835,0 17.809,7.973 17.809,17.808 0,9.837 -7.973,17.809 -17.809,17.809 z"
   id="path153" />
	<g
   id="g153">
		<polygon
   style="fill:#449ad5"
   points="564.144,675.555 614.521,725.931 665.538,725.931 732.359,792.754 729.637,795.477 663.941,729.78 612.925,729.78 562.549,679.404 535.751,679.404 535.751,675.555 "
   id="polygon153" />
	</g>
	<g
   id="g154">
		<polygon
   style="fill:#449ad5"
   points="557.709,802.257 611.295,802.257 634.718,825.681 704.666,825.681 717.988,839 717.988,850.552 728.41,860.976 760.499,860.976 782.161,882.638 782.161,898.837 796.279,898.837 796.279,902.688 778.31,902.688 778.31,884.232 758.903,864.825 726.815,864.825 714.137,852.146 714.137,840.595 703.071,829.529 633.123,829.529 609.699,806.107 556.116,806.107 533.893,783.884 536.615,781.162 "
   id="polygon154" />
	</g>
	<g
   id="g155">
		<polygon
   style="fill:#449ad5"
   points="376.768,718.071 385.27,726.575 406.127,726.575 446.235,766.683 482.814,766.683 494.365,778.234 532.869,778.234 557.818,803.184 555.096,805.907 531.273,782.085 492.77,782.085 481.219,770.534 444.641,770.534 404.531,730.425 383.675,730.425 375.171,721.923 365.221,721.923 365.221,718.071 "
   id="polygon155" />
	</g>
	<g
   id="g156">
		<polygon
   style="fill:#449ad5"
   points="791.629,305.15 799.334,312.857 799.334,361.949 809.358,371.973 806.636,374.697 795.482,363.545 795.482,314.451 790.033,309.002 769.492,309.002 769.492,305.15 "
   id="polygon156" />
	</g>
</g>
</svg>
